<svg viewBox="0 0 228 151" version="1.1" xmlns="http://www.w3.org/2000/svg">
  <path fill="#000000"  stroke="none" opacity="1" d="M 128.5 17 L 153.5 26 L 165 36.5 Q 164.3 38.8 166.5 38 L 201 71.5 L 199.5 74 L 196 75 L 197 78.5 L 199 109.5 L 200.5 111 L 203.5 110 L 205.5 110 L 208.5 109 L 212.5 110 L 215 109 L 215.5 107 L 218 108.5 Q 217.3 106.3 219.5 107 L 221.5 106 L 224.5 107 Q 226.2 103.3 228 106.5 Q 228.6 111.9 227.5 112 L 200 112 L 200 119.5 L 201.5 121 Q 206.9 120.1 209 122.5 L 206.5 123 L 205.5 122 L 158.5 122 L 156.5 121 L 154.5 122 L 155 120.5 L 154 117.5 L 154 93.5 L 153 92.5 L 153 80 L 105 80 L 105 121 L 107 121.5 L 99.5 122 L 96.5 121 L 93.5 122 L 92.5 121 L 60.5 121 L 59.5 120 L 45.5 120 L 44.5 119 L 43 119.5 Q 45.3 118.3 42.5 117 Q 35.8 116.3 32.5 119 L 24 119 Q 25.1 122.3 21 121 Q 22.3 118 18.5 119 L 17 119.5 Q 16.3 117.3 18.5 118 L 18.5 117 Q 13.1 115.1 14 118.5 L 14.5 120 L 10.5 121 L 9.5 118 L 6.5 117 L 3 119.5 L 0.5 123 L 0 108 L 2.5 109 L 7.5 108 L 11.5 107 L 14.5 108 Q 20 106.5 21.5 109 L 23 105.5 L 25 85 L 18 83.5 L 64.5 67 L 79 52.5 L 80.5 50 L 84 47.5 L 103.5 27 L 128.5 17 Z M 139 34 L 138 35 L 116 35 L 116 55 L 139 55 L 143 54 L 142 48 L 142 36 L 139 34 Z M 121 57 L 121 58 L 122 58 L 121 57 Z M 141 57 L 141 58 L 141 57 Z M 120 58 L 120 59 L 120 58 Z M 120 59 L 120 74 L 124 73 L 133 73 L 134 74 L 140 73 L 140 59 L 120 59 Z M 77 86 L 77 98 L 76 99 L 76 108 L 91 108 L 91 97 L 92 96 L 92 86 L 77 86 Z M 167 86 L 168 109 L 183 109 L 184 108 L 183 107 L 183 96 L 182 95 L 182 86 L 167 86 Z M 29 87 L 27 89 L 28 91 L 30 88 L 29 87 Z M 33 88 L 30 92 L 34 89 L 33 88 Z M 36 89 L 26 99 Q 27 105 25 108 L 33 108 L 34 109 L 36 108 L 38 109 L 42 108 L 44 106 L 44 97 L 42 90 L 36 89 Z M 45 91 L 44 93 L 45 93 L 45 91 Z M 30 92 L 30 93 L 30 92 Z M 48 92 L 47 94 L 48 94 L 48 92 Z M 51 92 L 48 96 L 49 97 L 52 94 L 51 92 Z M 54 94 L 46 102 L 47 106 Q 50 107 49 104 L 54 104 L 56 104 L 58 103 L 57 96 L 54 94 Z M 59 95 L 59 96 L 59 95 Z M 48 97 L 48 98 L 48 97 Z M 62 98 L 61 100 L 62 100 L 62 98 Z M 61 100 L 61 101 L 61 100 Z M 61 102 L 60 105 L 61 105 L 61 102 Z M 55 105 L 55 106 L 55 105 Z M 54 114 L 54 115 L 54 114 Z M 57 114 L 56 116 L 54 116 L 45 116 L 45 119 L 52 118 L 60 118 L 60 116 L 59 116 Q 60 118 57 117 L 57 114 Z M 3 118 L 3 119 L 3 118 Z "/><path fill="#000000"  stroke="none" opacity="1" d="M 118 36 L 128 36 L 128 53 L 117 53 L 117 45.5 L 118 44.5 L 118 36 Z "/><path fill="#000000"  stroke="none" opacity="1" d="M 130 36 L 140 36 L 140 44 L 131 44.5 L 140 45 L 141 53 L 130 53 L 130 36 Z "/>
  <path fill="#000000"  stroke="none" opacity="1" d="M 86 38 L 89 38.5 L 86 40.5 L 86 38 Z "/>
  <path fill="#000000"  stroke="none" opacity="1" d="M 125.5 61 L 125.5 62 L 125.5 61 Z "/>
  <path fill="#000000"  stroke="none" opacity="1" d="M 131.5 61 L 133 64 Q 129.5 65.1 131.5 61 Z "/>
  <path fill="#000000"  stroke="none" opacity="1" d="M 124.5 67 L 124.5 68 L 124.5 67 Z "/>
  <path fill="#000000"  stroke="none" opacity="1" d="M 126.5 67 L 126.5 68 L 126.5 67 Z "/>
  <path fill="#000000"  stroke="none" opacity="1" d="M 109.5 82 L 126 82.5 L 116.5 89 L 109.5 82 Z "/>
  <path fill="#000000"  stroke="none" opacity="1" d="M 134.5 82 L 149 82.5 L 141.5 89 L 134.5 82 Z "/>
  <path fill="#000000"  stroke="none" opacity="1" d="M 107.5 84 L 115 90.5 L 113.5 93 L 107.5 98 L 107.5 84 Z "/>
  <path fill="#000000"  stroke="none" opacity="1" d="M 126.5 84 L 128 84.5 L 128 97.5 L 123.5 94 L 119 90.5 L 126.5 84 Z "/>
  <path fill="#000000"  stroke="none" opacity="1" d="M 132.5 84 L 140 90.5 L 132 97 L 132.5 84 Z "/>
  <path fill="#000000"  stroke="none" opacity="1" d="M 150.5 84 Q 153.1 88.9 152 97.5 L 146.5 93 L 143 90.5 L 150.5 84 Z "/>
  <path fill="#000000"  stroke="none" opacity="1" d="M 177.5 87 L 180 87 L 180 92.5 L 181 93.5 L 181 107 L 170 107 L 170 94.5 L 169 88 L 176.5 88 L 177.5 87 Z "/>
  <path fill="#000000"  stroke="none" opacity="1" d="M 79 88 L 90 88 L 90 94.5 L 89 95.5 L 89 107 L 78 107 L 78 100.5 L 79 99.5 L 79 88 Z "/>
  <path fill="#000000"  stroke="none" opacity="1" d="M 117.5 92 L 126 99.5 L 109.5 100 L 113.5 95 L 117.5 92 Z "/>
  <path fill="#000000"  stroke="none" opacity="1" d="M 141.5 92 L 150 99.5 L 148.5 100 L 146.5 100 L 134.5 100 L 134 98 L 141.5 92 Z "/>
  <path fill="#000000"  stroke="none" opacity="1" d="M 109.5 101 L 126 101.5 L 117.5 109 L 109.5 101 Z "/>
  <path fill="#000000"  stroke="none" opacity="1" d="M 134.5 101 L 150 101.5 L 142.5 109 L 140.5 107 L 134.5 101 Z "/>
  <path fill="#000000"  stroke="none" opacity="1" d="M 107.5 103 L 116 110.5 L 107.5 118 L 107.5 103 Z "/>
  <path fill="#000000"  stroke="none" opacity="1" d="M 127.5 103 L 128 117.5 L 121.5 112 L 119 110.5 L 127.5 103 Z "/>
  <path fill="#000000"  stroke="none" opacity="1" d="M 132.5 103 L 140 109 L 132.5 118 L 132.5 103 Z "/>
  <path fill="#000000"  stroke="none" opacity="1" d="M 151.5 103 L 153 117.5 L 148.5 114 L 144 110.5 L 151.5 103 Z "/>
  <path fill="#000000"  stroke="none" opacity="1" d="M 117.5 112 L 125 118.5 L 109.5 119 L 109.5 118 L 117.5 112 Z "/>
  <path fill="#000000"  stroke="none" opacity="1" d="M 141.5 112 L 150 118.5 L 135.5 119 L 141.5 112 Z "/>
  <path fill="#000000"  stroke="none" opacity="1" d="M 212 119 L 222.5 120 L 226 122.5 L 225.5 125 L 222.5 124 L 216.5 123 L 214.5 124 L 212.5 124 L 210 123.5 Q 212.8 122.4 212 119 Z "/>
  <path fill="#000000"  stroke="none" opacity="1" d="M 108.5 121 L 110 121.5 L 108.5 122 L 108.5 121 Z "/>
  <path fill="#000000"  stroke="none" opacity="1" d="M 57.5 123 L 59 123.5 L 57.5 124 L 57.5 123 Z "/>
  <path fill="#000000"  stroke="none" opacity="1" d="M 7.5 126 L 9 126.5 L 7.5 127 L 7.5 126 Z "/>
  <path fill="#000000"  stroke="none" opacity="1" d="M 172.5 126 L 172.5 127 L 172.5 126 Z "/>
  <path fill="#000000"  stroke="none" opacity="1" d="M 203.5 126 L 205 126.5 L 203.5 127 L 203.5 126 Z "/>
  <path fill="#000000"  stroke="none" opacity="1" d="M 223.5 126 L 223.5 127 L 223.5 126 Z "/>
  <path fill="#000000"  stroke="none" opacity="1" d="M 213.5 128 L 213.5 129 L 213.5 128 Z "/>
  <path fill="#000000"  stroke="none" opacity="1" d="M 217.5 128 L 217.5 129 L 217.5 128 Z "/>
  <path fill="#000000"  stroke="none" opacity="1" d="M 203.5 131 L 203.5 132 L 203.5 131 Z "/>
  <path fill="#000000"  stroke="none" opacity="1" d="M 219.5 131 L 219.5 132 L 219.5 131 Z "/>
  <path fill="#000000"  stroke="none" opacity="1" d="M 221.5 132 L 225 132.5 L 221.5 133 L 221.5 132 Z "/>
  <path fill="#000000"  stroke="none" opacity="1" d="M 226.5 133 L 226 134.5 Q 226.5 137.5 219.5 136 L 219.5 135 L 226.5 133 Z "/>
  <path fill="#000000"  stroke="none" opacity="1" d="M 26.5 136 L 26.5 137 L 26.5 136 Z "/>
  <path fill="#000000"  stroke="none" opacity="1" d="M 18.5 138 L 18.5 139 L 18.5 138 Z "/>
  <path fill="#000000"  stroke="none" opacity="1" d="M 23.5 138 L 23.5 139 L 23.5 138 Z "/>
  <path fill="#000000"  stroke="none" opacity="1" d="M 199.5 138 L 201 138.5 L 199.5 139 L 199.5 138 Z "/>
  <path fill="#000000"  stroke="none" opacity="1" d="M 6.5 141 L 6.5 142 L 6.5 141 Z "/>
  <path fill="#000000"  stroke="none" opacity="1" d="M 2.5 142 L 4 142.5 L 2.5 143 L 2.5 142 Z "/>
  <path fill="#000000"  stroke="none" opacity="1" d="M 225.5 144 L 225.5 145 L 225.5 144 Z "/>
  <path fill="#000000"  stroke="none" opacity="1" d="M 9.5 145 L 9.5 146 L 9.5 145 Z "/>
  <path fill="#000000"  stroke="none" opacity="1" d="M 2.5 148 L 2.5 149 L 2.5 148 Z "/>
</svg>
