<?xml version="1.0" encoding="UTF-8" standalone="no"?>
<svg
   viewBox="0 0 206 154">
  <path
     id="path4"
     d="M 143.5 18 L 151.5 18 L 161 26.5 L 166 34.5 L 167 43 Q 170.9 40.6 180.5 42 L 187 46.5 Q 193.4 53.6 193 67.5 L 186.5 75 L 181.5 78 L 171 79.5 L 174 86.5 L 175 107.5 Q 173.3 116.8 166.5 121 L 162.5 123 L 145.5 123 L 131.5 119 L 115.5 106 L 97.5 120 L 91.5 123 L 83.5 123 L 73 114.5 L 69.5 110 L 62.5 112 L 52.5 118 L 42.5 118 L 37 114.5 Q 33.8 111.2 35 103.5 L 39 94.5 Q 26.5 89 18 79.5 L 17 71.5 L 23.5 64 L 33 61.5 Q 28.2 56.3 30 44.5 Q 33 37 39.5 33 L 45.5 31 L 51.5 31 L 54 35 L 57 36.5 L 59.5 42 Q 61.8 42.8 61 40.5 L 73.5 25 L 83.5 23 L 94.5 23 L 99 25 L 103.5 35 Q 111 27 122.5 23 L 143.5 18 Z M 143 20 L 129 23 L 116 28 L 103 37 Q 99 34 99 29 L 95 25 Q 82 24 75 27 L 64 40 L 62 44 L 59 45 L 56 39 L 51 33 L 45 33 L 38 37 L 32 45 L 32 56 L 35 64 Q 27 63 23 67 L 18 74 L 21 81 L 39 92 L 44 92 Q 45 95 42 94 Q 39 95 40 100 L 37 104 L 38 113 L 43 116 L 53 116 L 67 108 L 71 108 L 73 112 L 86 122 Q 93 122 98 118 Q 105 109 116 104 L 129 115 L 149 122 Q 160 123 167 119 Q 172 115 173 108 L 173 93 L 169 77 L 179 77 L 187 73 L 191 68 L 191 60 L 187 50 L 181 44 L 165 44 L 164 35 L 158 26 Q 155 18 143 20 Z "
     opacity="1"
     stroke="none"
     fill="#000000" />
</svg>
